<svg width="25" height="24" viewBox="0 0 25 24" fill="none" xmlns="http://www.w3.org/2000/svg">
<path d="M5.75244 18.9706C5.18031 18.9706 4.64569 18.7735 4.26115 18.4078C3.77343 17.9482 3.53895 17.2541 3.62336 16.5038L3.97039 13.4649C4.03605 12.8928 4.38308 12.1331 4.78638 11.7204L12.4867 3.56988C14.4095 1.53458 16.4166 1.47831 18.4519 3.40105C20.4872 5.32379 20.5435 7.33094 18.6207 9.36624L10.9204 17.5167C10.5265 17.9388 9.79489 18.3327 9.22275 18.4266L6.20265 18.9424C6.0432 18.9518 5.90251 18.9706 5.75244 18.9706ZM15.4975 3.39167C14.7753 3.39167 14.1469 3.84187 13.5091 4.51718L5.80872 12.6771C5.62113 12.8741 5.40541 13.3431 5.36789 13.6151L5.02086 16.6538C4.98335 16.9634 5.05838 17.2166 5.22721 17.376C5.39603 17.5355 5.64927 17.5918 5.95879 17.5449L8.9789 17.0291C9.25089 16.9822 9.7011 16.7383 9.88868 16.5413L17.589 8.3908C18.7521 7.15274 19.1741 6.00847 17.4765 4.41401C16.7261 3.69181 16.079 3.39167 15.4975 3.39167Z" fill="#FFC20C"/>
<path d="M5.75244 18.9706C5.18031 18.9706 4.64569 18.7735 4.26115 18.4078C3.77343 17.9482 3.53895 17.2541 3.62336 16.5038L3.97039 13.4649C4.03605 12.8928 4.38308 12.1331 4.78638 11.7204L12.4867 3.56988C14.4095 1.53458 16.4166 1.47831 18.4519 3.40105C20.4872 5.32379 20.5435 7.33094 18.6207 9.36624L10.9204 17.5167C10.5265 17.9388 9.79489 18.3327 9.22275 18.4266L6.20265 18.9424C6.0432 18.9518 5.90251 18.9706 5.75244 18.9706ZM15.4975 3.39167C14.7753 3.39167 14.1469 3.84187 13.5091 4.51718L5.80872 12.6771C5.62113 12.8741 5.40541 13.3431 5.36789 13.6151L5.02086 16.6538C4.98335 16.9634 5.05838 17.2166 5.22721 17.376C5.39603 17.5355 5.64927 17.5918 5.95879 17.5449L8.9789 17.0291C9.25089 16.9822 9.7011 16.7383 9.88868 16.5413L17.589 8.3908C18.7521 7.15274 19.1741 6.00847 17.4765 4.41401C16.7261 3.69181 16.079 3.39167 15.4975 3.39167Z" fill="black" fill-opacity="0.2"/>
<path d="M16.8201 10.9326C16.8013 10.9326 16.7732 10.9326 16.7544 10.9326C13.8281 10.6419 11.4739 8.41903 11.0237 5.51147C10.9674 5.12692 11.23 4.77051 11.6146 4.70485C11.9991 4.64858 12.3556 4.9112 12.4212 5.29575C12.7776 7.56552 14.6159 9.31005 16.9045 9.53515C17.289 9.57267 17.5704 9.9197 17.5329 10.3042C17.486 10.6606 17.1765 10.9326 16.8201 10.9326Z" fill="#FFC20C"/>
<path d="M16.8201 10.9326C16.8013 10.9326 16.7732 10.9326 16.7544 10.9326C13.8281 10.6419 11.4739 8.41903 11.0237 5.51147C10.9674 5.12692 11.23 4.77051 11.6146 4.70485C11.9991 4.64858 12.3556 4.9112 12.4212 5.29575C12.7776 7.56552 14.6159 9.31005 16.9045 9.53515C17.289 9.57267 17.5704 9.9197 17.5329 10.3042C17.486 10.6606 17.1765 10.9326 16.8201 10.9326Z" fill="black" fill-opacity="0.2"/>
<path d="M20.2525 22.0006H3.36995C2.9854 22.0006 2.6665 21.6817 2.6665 21.2972C2.6665 20.9126 2.9854 20.5938 3.36995 20.5938H20.2525C20.6371 20.5938 20.956 20.9126 20.956 21.2972C20.956 21.6817 20.6371 22.0006 20.2525 22.0006Z" fill="#FFC20C"/>
<path d="M20.2525 22.0006H3.36995C2.9854 22.0006 2.6665 21.6817 2.6665 21.2972C2.6665 20.9126 2.9854 20.5938 3.36995 20.5938H20.2525C20.6371 20.5938 20.956 20.9126 20.956 21.2972C20.956 21.6817 20.6371 22.0006 20.2525 22.0006Z" fill="black" fill-opacity="0.2"/>
</svg>
