<svg width="25" height="24" viewBox="0 0 25 24" fill="none" xmlns="http://www.w3.org/2000/svg">
<path d="M12.6665 14.1311C12.1561 14.1311 11.7329 13.7079 11.7329 13.1975V12.9361C11.7329 11.4921 12.791 10.7825 13.1893 10.5087C13.6499 10.1974 13.7993 9.98584 13.7993 9.66218C13.7993 9.03977 13.2889 8.52934 12.6665 8.52934C12.0441 8.52934 11.5337 9.03977 11.5337 9.66218C11.5337 10.1726 11.1104 10.5958 10.6001 10.5958C10.0897 10.5958 9.6665 10.1726 9.6665 9.66218C9.6665 8.00657 11.0109 6.66211 12.6665 6.66211C14.3221 6.66211 15.6665 8.00657 15.6665 9.66218C15.6665 11.0813 14.6209 11.7908 14.235 12.0522C13.7495 12.3759 13.6001 12.5875 13.6001 12.9361V13.1975C13.6001 13.7203 13.1769 14.1311 12.6665 14.1311Z" fill="#FFC20C"/>
<path d="M12.6665 14.1311C12.1561 14.1311 11.7329 13.7079 11.7329 13.1975V12.9361C11.7329 11.4921 12.791 10.7825 13.1893 10.5087C13.6499 10.1974 13.7993 9.98584 13.7993 9.66218C13.7993 9.03977 13.2889 8.52934 12.6665 8.52934C12.0441 8.52934 11.5337 9.03977 11.5337 9.66218C11.5337 10.1726 11.1104 10.5958 10.6001 10.5958C10.0897 10.5958 9.6665 10.1726 9.6665 9.66218C9.6665 8.00657 11.0109 6.66211 12.6665 6.66211C14.3221 6.66211 15.6665 8.00657 15.6665 9.66218C15.6665 11.0813 14.6209 11.7908 14.235 12.0522C13.7495 12.3759 13.6001 12.5875 13.6001 12.9361V13.1975C13.6001 13.7203 13.1769 14.1311 12.6665 14.1311Z" fill="black" fill-opacity="0.2"/>
<path d="M12.6665 17.2305C12.1437 17.2305 11.7329 16.8073 11.7329 16.2969C11.7329 15.7865 12.1562 15.3633 12.6665 15.3633C13.1769 15.3633 13.6001 15.7865 13.6001 16.2969C13.6001 16.8073 13.1894 17.2305 12.6665 17.2305Z" fill="#FFC20C"/>
<path d="M12.6665 17.2305C12.1437 17.2305 11.7329 16.8073 11.7329 16.2969C11.7329 15.7865 12.1562 15.3633 12.6665 15.3633C13.1769 15.3633 13.6001 15.7865 13.6001 16.2969C13.6001 16.8073 13.1894 17.2305 12.6665 17.2305Z" fill="black" fill-opacity="0.2"/>
<path d="M12.6665 22C7.15022 22 2.6665 17.5163 2.6665 12C2.6665 6.48372 7.15022 2 12.6665 2C18.1828 2 22.6665 6.48372 22.6665 12C22.6665 17.5163 18.1828 22 12.6665 22ZM12.6665 3.39535C7.92232 3.39535 4.06185 7.25581 4.06185 12C4.06185 16.7442 7.92232 20.6046 12.6665 20.6046C17.4107 20.6046 21.2711 16.7442 21.2711 12C21.2711 7.25581 17.4107 3.39535 12.6665 3.39535Z" fill="#FFC20C"/>
<path d="M12.6665 22C7.15022 22 2.6665 17.5163 2.6665 12C2.6665 6.48372 7.15022 2 12.6665 2C18.1828 2 22.6665 6.48372 22.6665 12C22.6665 17.5163 18.1828 22 12.6665 22ZM12.6665 3.39535C7.92232 3.39535 4.06185 7.25581 4.06185 12C4.06185 16.7442 7.92232 20.6046 12.6665 20.6046C17.4107 20.6046 21.2711 16.7442 21.2711 12C21.2711 7.25581 17.4107 3.39535 12.6665 3.39535Z" fill="black" fill-opacity="0.2"/>
</svg>
