<svg width="25" height="24" viewBox="0 0 25 24" fill="none" xmlns="http://www.w3.org/2000/svg">
<path d="M20.5 14C21.6046 14 22.5 13.1046 22.5 12C22.5 10.8954 21.6046 10 20.5 10C19.3954 10 18.5 10.8954 18.5 12C18.5 13.1046 19.3954 14 20.5 14Z" stroke="white" stroke-width="1.3" stroke-linecap="round" stroke-linejoin="round"/>
<path d="M20.5 6C21.6046 6 22.5 5.10457 22.5 4C22.5 2.89543 21.6046 2 20.5 2C19.3954 2 18.5 2.89543 18.5 4C18.5 5.10457 19.3954 6 20.5 6Z" stroke="white" stroke-width="1.3" stroke-linecap="round" stroke-linejoin="round"/>
<path d="M20.5 22C21.6046 22 22.5 21.1046 22.5 20C22.5 18.8954 21.6046 18 20.5 18C19.3954 18 18.5 18.8954 18.5 20C18.5 21.1046 19.3954 22 20.5 22Z" stroke="white" stroke-width="1.3" stroke-linecap="round" stroke-linejoin="round"/>
<path d="M4.5 14C5.60457 14 6.5 13.1046 6.5 12C6.5 10.8954 5.60457 10 4.5 10C3.39543 10 2.5 10.8954 2.5 12C2.5 13.1046 3.39543 14 4.5 14Z" stroke="white" stroke-width="1.3" stroke-linecap="round" stroke-linejoin="round"/>
<path d="M6.5 12H18.5" stroke="white" stroke-width="1.3" stroke-linecap="round" stroke-linejoin="round"/>
<path d="M18.5 4H14.5C12.5 4 11.5 5 11.5 7V17C11.5 19 12.5 20 14.5 20H18.5" stroke="white" stroke-width="1.3" stroke-linecap="round" stroke-linejoin="round"/>
</svg>
