<svg width="25" height="25" viewBox="0 0 25 25" fill="none" xmlns="http://www.w3.org/2000/svg">
<path d="M17.4315 22.4782H6.65936C4.11053 22.4782 2.04541 20.4038 2.04541 17.8549V10.9619C2.04541 9.69677 2.82681 8.10608 3.83146 7.32468L8.84541 3.41771C10.3524 2.24562 12.7617 2.1898 14.3245 3.28747L20.0733 7.31538C21.1803 8.08747 22.0454 9.74329 22.0454 11.0922V17.8642C22.0454 20.4038 19.9803 22.4782 17.4315 22.4782ZM9.70122 4.51538L4.68727 8.42236C4.02681 8.94329 3.44076 10.1247 3.44076 10.9619V17.8549C3.44076 19.6317 4.88262 21.0828 6.65936 21.0828H17.4315C19.2082 21.0828 20.6501 19.641 20.6501 17.8642V11.0922C20.6501 10.1991 20.0082 8.96189 19.2733 8.45957L13.5245 4.43166C12.464 3.68747 10.7152 3.72468 9.70122 4.51538Z" fill="#012E46"/>
<path d="M12.0453 18.7564C11.6639 18.7564 11.3477 18.4401 11.3477 18.0587V15.268C11.3477 14.8866 11.6639 14.5703 12.0453 14.5703C12.4267 14.5703 12.743 14.8866 12.743 15.268V18.0587C12.743 18.4401 12.4267 18.7564 12.0453 18.7564Z" fill="#012E46"/>
</svg>
