<svg width="37" height="36" viewBox="0 0 37 36" fill="none" xmlns="http://www.w3.org/2000/svg">
<g filter="url(#filter0_d_227_16572)">
<path d="M29.3337 24.5843C29.3337 24.5617 29.3224 24.5392 29.3224 24.5166C29.3111 24.4264 29.2998 24.3361 29.266 24.2571C29.2209 24.1556 29.1645 24.0766 29.0968 23.9976C29.0968 23.9976 29.0968 23.9864 29.0855 23.9864C29.0065 23.9074 28.9163 23.851 28.8147 23.8059C28.7132 23.7607 28.6004 23.7382 28.4876 23.7382L23.219 23.7607C23.219 23.7607 23.219 23.7607 23.2078 23.7607C22.5309 23.7607 21.8765 23.4448 21.4704 22.9033L20.094 21.1321C19.812 20.7598 19.2818 20.6921 18.9095 20.9855C18.5372 21.2788 18.4695 21.7977 18.7628 22.17L20.1392 23.9412C20.8725 24.8889 22.0232 25.453 23.219 25.453H23.2303L26.4456 25.4417L25.6446 26.2427C25.3174 26.5699 25.3174 27.1114 25.6446 27.4386C25.8138 27.6078 26.0282 27.6867 26.2425 27.6867C26.4569 27.6867 26.6712 27.6078 26.8405 27.4386L29.0968 25.1822C29.1758 25.1033 29.2322 25.013 29.2773 24.9115C29.3111 24.7986 29.3337 24.6858 29.3337 24.5843Z" fill="#FFC20C"/>
<path d="M29.3337 24.5843C29.3337 24.5617 29.3224 24.5392 29.3224 24.5166C29.3111 24.4264 29.2998 24.3361 29.266 24.2571C29.2209 24.1556 29.1645 24.0766 29.0968 23.9976C29.0968 23.9976 29.0968 23.9864 29.0855 23.9864C29.0065 23.9074 28.9163 23.851 28.8147 23.8059C28.7132 23.7607 28.6004 23.7382 28.4876 23.7382L23.219 23.7607C23.219 23.7607 23.219 23.7607 23.2078 23.7607C22.5309 23.7607 21.8765 23.4448 21.4704 22.9033L20.094 21.1321C19.812 20.7598 19.2818 20.6921 18.9095 20.9855C18.5372 21.2788 18.4695 21.7977 18.7628 22.17L20.1392 23.9412C20.8725 24.8889 22.0232 25.453 23.219 25.453H23.2303L26.4456 25.4417L25.6446 26.2427C25.3174 26.5699 25.3174 27.1114 25.6446 27.4386C25.8138 27.6078 26.0282 27.6867 26.2425 27.6867C26.4569 27.6867 26.6712 27.6078 26.8405 27.4386L29.0968 25.1822C29.1758 25.1033 29.2322 25.013 29.2773 24.9115C29.3111 24.7986 29.3337 24.6858 29.3337 24.5843Z" fill="black" fill-opacity="0.2"/>
<path d="M14.2943 11.8476C13.561 10.8323 12.3877 10.2344 11.1354 10.2344C11.1241 10.2344 11.1241 10.2344 11.1128 10.2344L8.17962 10.2457C7.71707 10.2457 7.3335 10.6292 7.3335 11.0918C7.3335 11.5543 7.71707 11.9379 8.17962 11.9379L11.1241 11.9266H11.1354C11.8462 11.9266 12.5118 12.2651 12.9179 12.8404L14.1363 14.5327C14.3055 14.7583 14.565 14.8824 14.8245 14.8824C14.9937 14.8824 15.1742 14.826 15.3209 14.7245C15.7045 14.4424 15.7834 13.9122 15.5127 13.5399L14.2943 11.8476Z" fill="#FFC20C"/>
<path d="M14.2943 11.8476C13.561 10.8323 12.3877 10.2344 11.1354 10.2344C11.1241 10.2344 11.1241 10.2344 11.1128 10.2344L8.17962 10.2457C7.71707 10.2457 7.3335 10.6292 7.3335 11.0918C7.3335 11.5543 7.71707 11.9379 8.17962 11.9379L11.1241 11.9266H11.1354C11.8462 11.9266 12.5118 12.2651 12.9179 12.8404L14.1363 14.5327C14.3055 14.7583 14.565 14.8824 14.8245 14.8824C14.9937 14.8824 15.1742 14.826 15.3209 14.7245C15.7045 14.4424 15.7834 13.9122 15.5127 13.5399L14.2943 11.8476Z" fill="black" fill-opacity="0.2"/>
<path d="M29.3214 11.156C29.3214 11.1335 29.3327 11.1109 29.3327 11.0996C29.3327 10.9868 29.3101 10.874 29.265 10.7725C29.2199 10.6709 29.1635 10.5807 29.0845 10.5017L26.8282 8.24538C26.501 7.91821 25.9595 7.91821 25.6323 8.24538C25.3051 8.57254 25.3051 9.11406 25.6323 9.44123L26.4333 10.2422L23.3534 10.2309C23.3421 10.2309 23.3421 10.2309 23.3309 10.2309C22.0335 10.2309 20.8151 10.874 20.093 11.9683L12.8841 22.7761C12.4779 23.3853 11.7897 23.7576 11.0564 23.7576H11.0452L8.17962 23.735C7.71707 23.735 7.3335 24.1073 7.3335 24.5811C7.3335 25.0437 7.70579 25.4273 8.17962 25.4273L11.0564 25.4385H11.079C12.3877 25.4385 13.5948 24.7956 14.3168 23.7013L21.5258 12.8934C21.9319 12.2842 22.6201 11.9119 23.3534 11.9119H23.3647L28.4866 11.9345C28.5994 11.9345 28.7009 11.9119 28.8137 11.8668C28.9153 11.8217 29.0055 11.7652 29.0845 11.6863C29.0845 11.6863 29.0845 11.675 29.0958 11.675C29.1635 11.596 29.2312 11.5171 29.265 11.4155C29.2988 11.3365 29.3101 11.2463 29.3214 11.156Z" fill="#FFC20C"/>
<path d="M29.3214 11.156C29.3214 11.1335 29.3327 11.1109 29.3327 11.0996C29.3327 10.9868 29.3101 10.874 29.265 10.7725C29.2199 10.6709 29.1635 10.5807 29.0845 10.5017L26.8282 8.24538C26.501 7.91821 25.9595 7.91821 25.6323 8.24538C25.3051 8.57254 25.3051 9.11406 25.6323 9.44123L26.4333 10.2422L23.3534 10.2309C23.3421 10.2309 23.3421 10.2309 23.3309 10.2309C22.0335 10.2309 20.8151 10.874 20.093 11.9683L12.8841 22.7761C12.4779 23.3853 11.7897 23.7576 11.0564 23.7576H11.0452L8.17962 23.735C7.71707 23.735 7.3335 24.1073 7.3335 24.5811C7.3335 25.0437 7.70579 25.4273 8.17962 25.4273L11.0564 25.4385H11.079C12.3877 25.4385 13.5948 24.7956 14.3168 23.7013L21.5258 12.8934C21.9319 12.2842 22.6201 11.9119 23.3534 11.9119H23.3647L28.4866 11.9345C28.5994 11.9345 28.7009 11.9119 28.8137 11.8668C28.9153 11.8217 29.0055 11.7652 29.0845 11.6863C29.0845 11.6863 29.0845 11.675 29.0958 11.675C29.1635 11.596 29.2312 11.5171 29.265 11.4155C29.2988 11.3365 29.3101 11.2463 29.3214 11.156Z" fill="black" fill-opacity="0.2"/>
</g>
<defs>
<filter id="filter0_d_227_16572" x="-1.6665" y="-2" width="40" height="40" filterUnits="userSpaceOnUse" color-interpolation-filters="sRGB">
<feFlood flood-opacity="0" result="BackgroundImageFix"/>
<feColorMatrix in="SourceAlpha" type="matrix" values="0 0 0 0 0 0 0 0 0 0 0 0 0 0 0 0 0 0 127 0" result="hardAlpha"/>
<feMorphology radius="2" operator="dilate" in="SourceAlpha" result="effect1_dropShadow_227_16572"/>
<feOffset/>
<feComposite in2="hardAlpha" operator="out"/>
<feColorMatrix type="matrix" values="0 0 0 0 1 0 0 0 0 1 0 0 0 0 1 0 0 0 0.01 0"/>
<feBlend mode="normal" in2="BackgroundImageFix" result="effect1_dropShadow_227_16572"/>
<feBlend mode="normal" in="SourceGraphic" in2="effect1_dropShadow_227_16572" result="shape"/>
</filter>
</defs>
</svg>
