<svg width="20" height="20" viewBox="0 0 20 20" fill="none" xmlns="http://www.w3.org/2000/svg">
<path d="M15.0885 14.3086L19.0797 18.2988L17.7611 19.6174L13.7709 15.6262C12.2862 16.8164 10.4394 17.4638 8.53658 17.4611C3.90707 17.4611 0.14978 13.7038 0.14978 9.0743C0.14978 4.44479 3.90707 0.6875 8.53658 0.6875C13.1661 0.6875 16.9234 4.44479 16.9234 9.0743C16.9261 10.9772 16.2787 12.8239 15.0885 14.3086ZM13.2192 13.6171C14.4018 12.401 15.0623 10.7707 15.0596 9.0743C15.0596 5.46984 12.1401 2.55123 8.53658 2.55123C4.93212 2.55123 2.01351 5.46984 2.01351 9.0743C2.01351 12.6778 4.93212 15.5974 8.53658 15.5974C10.233 15.6 11.8632 14.9396 13.0794 13.7569L13.2192 13.6171V13.6171Z" fill="#013957"/>
<path d="M15.0885 14.3086L19.0797 18.2988L17.7611 19.6174L13.7709 15.6262C12.2862 16.8164 10.4394 17.4638 8.53658 17.4611C3.90707 17.4611 0.14978 13.7038 0.14978 9.0743C0.14978 4.44479 3.90707 0.6875 8.53658 0.6875C13.1661 0.6875 16.9234 4.44479 16.9234 9.0743C16.9261 10.9772 16.2787 12.8239 15.0885 14.3086ZM13.2192 13.6171C14.4018 12.401 15.0623 10.7707 15.0596 9.0743C15.0596 5.46984 12.1401 2.55123 8.53658 2.55123C4.93212 2.55123 2.01351 5.46984 2.01351 9.0743C2.01351 12.6778 4.93212 15.5974 8.53658 15.5974C10.233 15.6 11.8632 14.9396 13.0794 13.7569L13.2192 13.6171V13.6171Z" fill="black" fill-opacity="0.2"/>
</svg>
