<svg width="24" height="24" viewBox="0 0 24 24" fill="none" xmlns="http://www.w3.org/2000/svg">
<path d="M5.08594 18.9706C4.51381 18.9706 3.97919 18.7735 3.59464 18.4078C3.10692 17.9482 2.87244 17.2541 2.95686 16.5038L3.30389 13.4649C3.36954 12.8928 3.71657 12.1331 4.11988 11.7204L11.8202 3.56988C13.743 1.53458 15.7501 1.47831 17.7854 3.40105C19.8207 5.32379 19.877 7.33094 17.9542 9.36624L10.2539 17.5167C9.85997 17.9388 9.12838 18.3327 8.55625 18.4266L5.53614 18.9424C5.37669 18.9518 5.23601 18.9706 5.08594 18.9706ZM14.831 3.39167C14.1088 3.39167 13.4804 3.84187 12.8426 4.51718L5.14221 12.6771C4.95463 12.8741 4.73891 13.3431 4.70139 13.6151L4.35436 16.6538C4.31684 16.9634 4.39188 17.2166 4.5607 17.376C4.72953 17.5355 4.98277 17.5918 5.29228 17.5449L8.31239 17.0291C8.58439 16.9822 9.03459 16.7383 9.22218 16.5413L16.9225 8.3908C18.0855 7.15274 18.5076 6.00847 16.81 4.41401C16.0596 3.69181 15.4125 3.39167 14.831 3.39167Z" fill="white"></path>
<path d="M16.1536 10.9326C16.1348 10.9326 16.1067 10.9326 16.0879 10.9326C13.1616 10.6419 10.8074 8.41903 10.3572 5.51147C10.3009 5.12692 10.5635 4.77051 10.9481 4.70485C11.3326 4.64858 11.689 4.9112 11.7547 5.29575C12.1111 7.56552 13.9494 9.31005 16.238 9.53515C16.6225 9.57267 16.9039 9.9197 16.8664 10.3042C16.8195 10.6606 16.51 10.9326 16.1536 10.9326Z" fill="white"></path>
<path d="M19.586 21.9997H2.70344C2.31889 21.9997 2 21.6808 2 21.2962C2 20.9117 2.31889 20.5928 2.70344 20.5928H19.586C19.9706 20.5928 20.2895 20.9117 20.2895 21.2962C20.2895 21.6808 19.9706 21.9997 19.586 21.9997Z" fill="white"></path>
</svg>
