<svg width="24" height="24" viewBox="0 0 24 24" fill="none" xmlns="http://www.w3.org/2000/svg">
<path d="M5.14286 19.7143H8.35714V12.8571H14.7857V19.7143H18V9.42857L11.5714 4.28571L5.14286 9.42857V19.7143ZM5.14286 22C4.55357 22 4.04929 21.7764 3.63 21.3291C3.21 20.8811 3 20.3429 3 19.7143V9.42857C3 9.06667 3.07607 8.72381 3.22821 8.4C3.37964 8.07619 3.58929 7.80952 3.85714 7.6L10.2857 2.45714C10.4821 2.30476 10.6875 2.19048 10.9018 2.11429C11.1161 2.0381 11.3393 2 11.5714 2C11.8036 2 12.0268 2.0381 12.2411 2.11429C12.4554 2.19048 12.6607 2.30476 12.8571 2.45714L19.2857 7.6C19.5536 7.80952 19.7636 8.07619 19.9157 8.4C20.0671 8.72381 20.1429 9.06667 20.1429 9.42857V19.7143C20.1429 20.3429 19.9332 20.8811 19.5139 21.3291C19.0939 21.7764 18.5893 22 18 22H12.6429V15.1429H10.5V22H5.14286Z" fill="#013957"></path>
<path d="M5.14286 19.7143H8.35714V12.8571H14.7857V19.7143H18V9.42857L11.5714 4.28571L5.14286 9.42857V19.7143ZM5.14286 22C4.55357 22 4.04929 21.7764 3.63 21.3291C3.21 20.8811 3 20.3429 3 19.7143V9.42857C3 9.06667 3.07607 8.72381 3.22821 8.4C3.37964 8.07619 3.58929 7.80952 3.85714 7.6L10.2857 2.45714C10.4821 2.30476 10.6875 2.19048 10.9018 2.11429C11.1161 2.0381 11.3393 2 11.5714 2C11.8036 2 12.0268 2.0381 12.2411 2.11429C12.4554 2.19048 12.6607 2.30476 12.8571 2.45714L19.2857 7.6C19.5536 7.80952 19.7636 8.07619 19.9157 8.4C20.0671 8.72381 20.1429 9.06667 20.1429 9.42857V19.7143C20.1429 20.3429 19.9332 20.8811 19.5139 21.3291C19.0939 21.7764 18.5893 22 18 22H12.6429V15.1429H10.5V22H5.14286Z" fill="black" fill-opacity="0.2"></path>
</svg>
