<svg width="24" height="24" viewBox="0 0 24 24" fill="none" xmlns="http://www.w3.org/2000/svg">
<path d="M5 10.4873H7C9 10.4873 10 9.4873 10 7.4873V5.4873C10 3.4873 9 2.4873 7 2.4873H5C3 2.4873 2 3.4873 2 5.4873V7.4873C2 9.4873 3 10.4873 5 10.4873Z" stroke="white" stroke-width="1.3" stroke-miterlimit="10" stroke-linecap="round" stroke-linejoin="round"></path>
<path d="M17 10.4873H19C21 10.4873 22 9.4873 22 7.4873V5.4873C22 3.4873 21 2.4873 19 2.4873H17C15 2.4873 14 3.4873 14 5.4873V7.4873C14 9.4873 15 10.4873 17 10.4873Z" stroke="white" stroke-width="1.3" stroke-miterlimit="10" stroke-linecap="round" stroke-linejoin="round"></path>
<path d="M17 22.4873H19C21 22.4873 22 21.4873 22 19.4873V17.4873C22 15.4873 21 14.4873 19 14.4873H17C15 14.4873 14 15.4873 14 17.4873V19.4873C14 21.4873 15 22.4873 17 22.4873Z" stroke="white" stroke-width="1.3" stroke-miterlimit="10" stroke-linecap="round" stroke-linejoin="round"></path>
<path d="M5 22.4873H7C9 22.4873 10 21.4873 10 19.4873V17.4873C10 15.4873 9 14.4873 7 14.4873H5C3 14.4873 2 15.4873 2 17.4873V19.4873C2 21.4873 3 22.4873 5 22.4873Z" stroke="white" stroke-width="1.3" stroke-miterlimit="10" stroke-linecap="round" stroke-linejoin="round"></path>
</svg>
