<svg width="25" height="24" viewBox="0 0 25 24" fill="none" xmlns="http://www.w3.org/2000/svg">
<path d="M8.61257 21.1907C8.3521 21.1907 8.08231 21.1255 7.84045 20.9953C7.31022 20.7162 6.98466 20.1581 6.98466 19.5628V18.2419C4.17536 17.9535 2.3335 15.8883 2.3335 12.9302V7.34884C2.3335 4.14884 4.48233 2 7.68233 2H16.9847C20.1847 2 22.3335 4.14884 22.3335 7.34884V12.9302C22.3335 16.1302 20.1847 18.279 16.9847 18.279H13.4777L9.51486 20.921C9.2451 21.0977 8.92884 21.1907 8.61257 21.1907ZM7.68233 3.38604C5.28233 3.38604 3.72885 4.93953 3.72885 7.33953V12.921C3.72885 15.321 5.28233 16.8745 7.68233 16.8745C8.06373 16.8745 8.38001 17.1908 8.38001 17.5722V19.5535C8.38001 19.6745 8.45443 19.7303 8.50094 19.7582C8.54746 19.7861 8.64048 19.814 8.74281 19.7489L12.8823 16.9954C12.994 16.921 13.1335 16.8745 13.273 16.8745H16.994C19.394 16.8745 20.9475 15.321 20.9475 12.921V7.33953C20.9475 4.93953 19.394 3.38604 16.994 3.38604H7.68233Z" fill="#FFC20C"></path>
<path d="M8.61257 21.1907C8.3521 21.1907 8.08231 21.1255 7.84045 20.9953C7.31022 20.7162 6.98466 20.1581 6.98466 19.5628V18.2419C4.17536 17.9535 2.3335 15.8883 2.3335 12.9302V7.34884C2.3335 4.14884 4.48233 2 7.68233 2H16.9847C20.1847 2 22.3335 4.14884 22.3335 7.34884V12.9302C22.3335 16.1302 20.1847 18.279 16.9847 18.279H13.4777L9.51486 20.921C9.2451 21.0977 8.92884 21.1907 8.61257 21.1907ZM7.68233 3.38604C5.28233 3.38604 3.72885 4.93953 3.72885 7.33953V12.921C3.72885 15.321 5.28233 16.8745 7.68233 16.8745C8.06373 16.8745 8.38001 17.1908 8.38001 17.5722V19.5535C8.38001 19.6745 8.45443 19.7303 8.50094 19.7582C8.54746 19.7861 8.64048 19.814 8.74281 19.7489L12.8823 16.9954C12.994 16.921 13.1335 16.8745 13.273 16.8745H16.994C19.394 16.8745 20.9475 15.321 20.9475 12.921V7.33953C20.9475 4.93953 19.394 3.38604 16.994 3.38604H7.68233Z" fill="black" fill-opacity="0.2"></path>
</svg>
