<svg width="24" height="24" viewBox="0 0 24 24" fill="none" xmlns="http://www.w3.org/2000/svg">
<path d="M16.9995 2C19.9994 2 21.9993 3.99993 21.9993 6.99983V8.99976" stroke="white" stroke-width="1.49995" stroke-miterlimit="10" stroke-linecap="round" stroke-linejoin="round"></path>
<path d="M2 8.99976V6.99983C2 3.99993 3.99993 2 6.99983 2H12.7696" stroke="white" stroke-width="1.49995" stroke-miterlimit="10" stroke-linecap="round" stroke-linejoin="round"></path>
<path d="M21.9998 15V16.9999C21.9998 19.9998 19.9999 21.9998 17 21.9998H11.4702" stroke="white" stroke-width="1.49995" stroke-miterlimit="10" stroke-linecap="round" stroke-linejoin="round"></path>
<path d="M2 15V16.9999C2 19.9998 3.99993 21.9998 6.99983 21.9998" stroke="white" stroke-width="1.49995" stroke-miterlimit="10" stroke-linecap="round" stroke-linejoin="round"></path>
<path d="M6.69922 9.25977L11.999 12.3296L17.2588 9.27979" stroke="white" stroke-width="1.49995" stroke-linecap="round" stroke-linejoin="round"></path>
<path d="M11.9995 17.7691V12.3193" stroke="white" stroke-width="1.49995" stroke-linecap="round" stroke-linejoin="round"></path>
<path d="M10.76 6.28956L7.56019 8.06953C6.84021 8.46951 6.24023 9.47947 6.24023 10.3095V13.6993C6.24023 14.5293 6.83021 15.5393 7.56019 15.9393L10.76 17.7192C11.44 18.0992 12.56 18.0992 13.25 17.7192L16.4498 15.9393C17.1698 15.5393 17.7698 14.5293 17.7698 13.6993V10.3095C17.7698 9.47947 17.1798 8.46951 16.4498 8.06953L13.25 6.28956C12.56 5.89957 11.44 5.89957 10.76 6.28956Z" stroke="white" stroke-width="1.49995" stroke-linecap="round" stroke-linejoin="round"></path>
</svg>
