<svg width="25" height="24" viewBox="0 0 25 24" fill="none" xmlns="http://www.w3.org/2000/svg">
<path d="M13.03 20.84H6.71C3.55 20.84 2.5 18.74 2.5 16.63V8.21C2.5 5.05 3.55 4 6.71 4H13.03C16.19 4 17.24 5.05 17.24 8.21V16.63C17.24 19.79 16.18 20.84 13.03 20.84Z" stroke="white" stroke-width="1.3" stroke-linecap="round" stroke-linejoin="round"></path>
<path d="M20.0202 17.5201L17.2402 15.5701V9.26005L20.0202 7.31005C21.3802 6.36005 22.5002 6.94005 22.5002 8.61005V16.2301C22.5002 17.9001 21.3802 18.4801 20.0202 17.5201Z" stroke="white" stroke-width="1.3" stroke-linecap="round" stroke-linejoin="round"></path>
<path d="M12 11.4199C12.8284 11.4199 13.5 10.7483 13.5 9.91992C13.5 9.09149 12.8284 8.41992 12 8.41992C11.1716 8.41992 10.5 9.09149 10.5 9.91992C10.5 10.7483 11.1716 11.4199 12 11.4199Z" stroke="white" stroke-width="1.3" stroke-linecap="round" stroke-linejoin="round"></path>
</svg>
