<svg width="25" height="24" viewBox="0 0 25 24" fill="none" xmlns="http://www.w3.org/2000/svg">
<path d="M19.3194 8.98561C19.3194 10.4326 18.8902 11.7599 18.1518 12.8676C17.074 14.4643 15.3675 15.592 13.3816 15.8814C13.0423 15.9413 12.693 15.9712 12.3338 15.9712C11.9745 15.9712 11.6252 15.9413 11.2859 15.8814C9.3 15.592 7.59352 14.4643 6.51574 12.8676C5.77726 11.7599 5.34814 10.4326 5.34814 8.98561C5.34814 5.12356 8.47171 2 12.3338 2C16.1958 2 19.3194 5.12356 19.3194 8.98561Z" stroke="#FFC20C" stroke-width="1.3" stroke-linecap="round" stroke-linejoin="round"></path>
<path d="M19.3194 8.98561C19.3194 10.4326 18.8902 11.7599 18.1518 12.8676C17.074 14.4643 15.3675 15.592 13.3816 15.8814C13.0423 15.9413 12.693 15.9712 12.3338 15.9712C11.9745 15.9712 11.6252 15.9413 11.2859 15.8814C9.3 15.592 7.59352 14.4643 6.51574 12.8676C5.77726 11.7599 5.34814 10.4326 5.34814 8.98561C5.34814 5.12356 8.47171 2 12.3338 2C16.1958 2 19.3194 5.12356 19.3194 8.98561Z" stroke="black" stroke-opacity="0.2" stroke-width="1.3" stroke-linecap="round" stroke-linejoin="round"></path>
<path d="M21.5645 18.4355L19.9179 18.8247C19.5486 18.9145 19.2592 19.1939 19.1794 19.5632L18.8301 21.0302C18.6405 21.8285 17.6226 22.068 17.0937 21.4393L12.3335 15.9706L7.57329 21.4493C7.04438 22.078 6.02647 21.8385 5.83686 21.0401L5.48758 19.5732C5.39777 19.2039 5.10836 18.9145 4.74911 18.8347L3.1025 18.4455C2.34406 18.2658 2.07462 17.3178 2.62349 16.7689L6.51547 12.877C7.59324 14.4737 9.29973 15.6013 11.2857 15.8907C11.625 15.9506 11.9743 15.9806 12.3335 15.9806C12.6928 15.9806 13.0421 15.9506 13.3814 15.8907C15.3673 15.6013 17.0737 14.4737 18.1515 12.877L22.0435 16.7689C22.5924 17.3078 22.3229 18.2559 21.5645 18.4355Z" stroke="#FFC20C" stroke-width="1.3" stroke-linecap="round" stroke-linejoin="round"></path>
<path d="M21.5645 18.4355L19.9179 18.8247C19.5486 18.9145 19.2592 19.1939 19.1794 19.5632L18.8301 21.0302C18.6405 21.8285 17.6226 22.068 17.0937 21.4393L12.3335 15.9706L7.57329 21.4493C7.04438 22.078 6.02647 21.8385 5.83686 21.0401L5.48758 19.5732C5.39777 19.2039 5.10836 18.9145 4.74911 18.8347L3.1025 18.4455C2.34406 18.2658 2.07462 17.3178 2.62349 16.7689L6.51547 12.877C7.59324 14.4737 9.29973 15.6013 11.2857 15.8907C11.625 15.9506 11.9743 15.9806 12.3335 15.9806C12.6928 15.9806 13.0421 15.9506 13.3814 15.8907C15.3673 15.6013 17.0737 14.4737 18.1515 12.877L22.0435 16.7689C22.5924 17.3078 22.3229 18.2559 21.5645 18.4355Z" stroke="black" stroke-opacity="0.2" stroke-width="1.3" stroke-linecap="round" stroke-linejoin="round"></path>
<path d="M12.9123 5.9712L13.5011 7.14876C13.5809 7.30843 13.7905 7.46812 13.9801 7.49805L15.0479 7.67767C15.7265 7.78745 15.8862 8.28643 15.3972 8.77542L14.5689 9.6037C14.4292 9.74341 14.3494 10.0129 14.3993 10.2125L14.6388 11.2403C14.8284 12.0487 14.3993 12.368 13.6807 11.9389L12.6828 11.3501C12.5032 11.2403 12.2038 11.2403 12.0242 11.3501L11.0262 11.9389C10.3077 12.358 9.87855 12.0487 10.0682 11.2403L10.3077 10.2125C10.3476 10.0229 10.2777 9.74341 10.138 9.6037L9.30972 8.77542C8.82073 8.28643 8.9804 7.79743 9.659 7.67767L10.7268 7.49805C10.9065 7.46812 11.116 7.30843 11.1959 7.14876L11.7847 5.9712C12.0741 5.33252 12.593 5.33252 12.9123 5.9712Z" stroke="#FFC20C" stroke-width="1.3" stroke-linecap="round" stroke-linejoin="round"></path>
<path d="M12.9123 5.9712L13.5011 7.14876C13.5809 7.30843 13.7905 7.46812 13.9801 7.49805L15.0479 7.67767C15.7265 7.78745 15.8862 8.28643 15.3972 8.77542L14.5689 9.6037C14.4292 9.74341 14.3494 10.0129 14.3993 10.2125L14.6388 11.2403C14.8284 12.0487 14.3993 12.368 13.6807 11.9389L12.6828 11.3501C12.5032 11.2403 12.2038 11.2403 12.0242 11.3501L11.0262 11.9389C10.3077 12.358 9.87855 12.0487 10.0682 11.2403L10.3077 10.2125C10.3476 10.0229 10.2777 9.74341 10.138 9.6037L9.30972 8.77542C8.82073 8.28643 8.9804 7.79743 9.659 7.67767L10.7268 7.49805C10.9065 7.46812 11.116 7.30843 11.1959 7.14876L11.7847 5.9712C12.0741 5.33252 12.593 5.33252 12.9123 5.9712Z" stroke="black" stroke-opacity="0.2" stroke-width="1.3" stroke-linecap="round" stroke-linejoin="round"></path>
</svg>
