<svg width="25" height="24" viewBox="0 0 25 24" fill="none" xmlns="http://www.w3.org/2000/svg">
<path d="M16.3087 22.0002H8.69128C4.29218 22.0002 3.4733 20.0002 3.26382 18.056L2.54969 10.6049C2.44495 9.62814 2.41638 8.18628 3.40665 7.10721C4.26362 6.17698 5.68237 5.73047 7.73909 5.73047H17.2609C19.3272 5.73047 20.7459 6.18628 21.5933 7.10721C22.5836 8.18628 22.5551 9.62814 22.4503 10.6142L21.7362 18.0467C21.5267 20.0002 20.7078 22.0002 16.3087 22.0002ZM7.73909 7.11652C6.1299 7.11652 5.02537 7.42349 4.46358 8.03745C3.99701 8.53977 3.84466 9.31186 3.96844 10.4653L4.68258 17.9165C4.84445 19.3863 5.25389 20.6049 8.69128 20.6049H16.3087C19.7366 20.6049 20.1556 19.3863 20.3174 17.9072L21.0316 10.4746C21.1553 9.31186 21.003 8.53977 20.5364 8.03745C19.9746 7.42349 18.8701 7.11652 17.2609 7.11652H7.73909Z" fill="white"></path>
<path d="M16.3087 7.11628C15.9183 7.11628 15.5945 6.8 15.5945 6.4186V5.67442C15.5945 4.0186 15.5945 3.39535 13.2617 3.39535H11.7382C9.40533 3.39535 9.40533 4.0186 9.40533 5.67442V6.4186C9.40533 6.8 9.08159 7.11628 8.69119 7.11628C8.30079 7.11628 7.97705 6.8 7.97705 6.4186V5.67442C7.97705 4.03721 7.97705 2 11.7382 2H13.2617C17.0228 2 17.0228 4.03721 17.0228 5.67442V6.4186C17.0228 6.8 16.6991 7.11628 16.3087 7.11628Z" fill="white"></path>
</svg>
