<svg width="25" height="24" viewBox="0 0 25 24" fill="none" xmlns="http://www.w3.org/2000/svg">
<path d="M17.1507 22H7.40181C4.79716 22 3.14135 20.4465 2.99251 17.8512L2.50879 10.1767C2.43437 9.01395 2.83437 7.89767 3.63437 7.05116C4.42507 6.20465 5.54135 5.72093 6.69484 5.72093C6.99251 5.72093 7.28088 5.54419 7.42042 5.26512L8.09019 3.93488C8.63902 2.84651 10.0158 2 11.2158 2H13.346C14.546 2 15.9135 2.84651 16.4623 3.92558L17.1321 5.28372C17.2716 5.54419 17.5507 5.72093 17.8576 5.72093C19.0111 5.72093 20.1274 6.20465 20.9181 7.05116C21.7181 7.90698 22.1181 9.01395 22.0437 10.1767L21.56 17.8605C21.3925 20.493 19.7832 22 17.1507 22ZM11.2158 3.39535C10.5274 3.39535 9.65298 3.93488 9.3367 4.55814L8.66693 5.89767C8.27623 6.65116 7.52274 7.11628 6.69484 7.11628C5.91344 7.11628 5.18785 7.43256 4.64833 8C4.11809 8.56744 3.84833 9.31163 3.90414 10.0837L4.38786 17.7674C4.49948 19.6465 5.51344 20.6047 7.40181 20.6047H17.1507C19.0297 20.6047 20.0437 19.6465 20.1646 17.7674L20.6483 10.0837C20.6948 9.31163 20.4344 8.56744 19.9041 8C19.3646 7.43256 18.639 7.11628 17.8576 7.11628C17.0297 7.11628 16.2762 6.65116 15.8855 5.91628L15.2065 4.55814C14.8995 3.94419 14.0251 3.40465 13.3367 3.40465H11.2158V3.39535Z" fill="white"></path>
<path d="M13.672 8.9764H10.8813C10.4999 8.9764 10.1836 8.66012 10.1836 8.27873C10.1836 7.89733 10.4999 7.58105 10.8813 7.58105H13.672C14.0534 7.58105 14.3696 7.89733 14.3696 8.27873C14.3696 8.66012 14.0534 8.9764 13.672 8.9764Z" fill="white"></path>
<path d="M12.2766 18.2788C10.2208 18.2788 8.55566 16.6137 8.55566 14.5578C8.55566 12.502 10.2208 10.8369 12.2766 10.8369C14.3324 10.8369 15.9975 12.502 15.9975 14.5578C15.9975 16.6137 14.3324 18.2788 12.2766 18.2788ZM12.2766 12.2323C10.9929 12.2323 9.95101 13.2741 9.95101 14.5578C9.95101 15.8416 10.9929 16.8834 12.2766 16.8834C13.5603 16.8834 14.6022 15.8416 14.6022 14.5578C14.6022 13.2741 13.5603 12.2323 12.2766 12.2323Z" fill="white"></path>
</svg>
