<svg width="24" height="24" viewBox="0 0 24 24" fill="none" xmlns="http://www.w3.org/2000/svg">
<g clip-path="url('#clip0_240_18484')">
<path d="M12 18.6673C15.6819 18.6673 18.6667 15.6825 18.6667 12.0007C18.6667 8.31875 15.6819 5.33398 12 5.33398C8.31814 5.33398 5.33337 8.31875 5.33337 12.0007C5.33337 15.6825 8.31814 18.6673 12 18.6673Z" stroke="#FFC20C" stroke-width="1.3" stroke-linecap="round" stroke-linejoin="round"></path>
<path d="M12 18.6673C15.6819 18.6673 18.6667 15.6825 18.6667 12.0007C18.6667 8.31875 15.6819 5.33398 12 5.33398C8.31814 5.33398 5.33337 8.31875 5.33337 12.0007C5.33337 15.6825 8.31814 18.6673 12 18.6673Z" stroke="black" stroke-opacity="0.2" stroke-width="1.3" stroke-linecap="round" stroke-linejoin="round"></path>
<path d="M12 14.6667V12" stroke="#FFC20C" stroke-width="1.3" stroke-linecap="round" stroke-linejoin="round"></path>
<path d="M12 14.6667V12" stroke="black" stroke-opacity="0.2" stroke-width="1.3" stroke-linecap="round" stroke-linejoin="round"></path>
<path d="M12 9.33398H12.0067" stroke="#FFC20C" stroke-width="1.3" stroke-linecap="round" stroke-linejoin="round"></path>
<path d="M12 9.33398H12.0067" stroke="black" stroke-opacity="0.2" stroke-width="1.3" stroke-linecap="round" stroke-linejoin="round"></path>
</g>
<defs>
<clipPath id="clip0_240_18484">
<rect width="16" height="16" fill="white" transform="translate(4 4)"></rect>
</clipPath>
</defs>
</svg>
