<svg width="36" height="36" viewBox="0 0 36 36" fill="none" xmlns="http://www.w3.org/2000/svg">
<g filter="url('#filter0_d_227_16553')">
<path d="M14.2085 20.3535H9.16147C7.97266 20.3535 7 21.3262 7 22.515V28.9994H14.2085V20.3535Z" stroke="#FFC20C" stroke-width="1.3" stroke-miterlimit="10" stroke-linecap="round" stroke-linejoin="round"></path>
<path d="M14.2085 20.3535H9.16147C7.97266 20.3535 7 21.3262 7 22.515V28.9994H14.2085V20.3535Z" stroke="black" stroke-opacity="0.2" stroke-width="1.3" stroke-miterlimit="10" stroke-linecap="round" stroke-linejoin="round"></path>
<path d="M19.2448 16.0312H16.3592C15.1704 16.0312 14.1978 17.0039 14.1978 18.1927V29.0001H21.4062V18.1927C21.4062 17.0039 20.4444 16.0312 19.2448 16.0312Z" stroke="#FFC20C" stroke-width="1.3" stroke-miterlimit="10" stroke-linecap="round" stroke-linejoin="round"></path>
<path d="M19.2448 16.0312H16.3592C15.1704 16.0312 14.1978 17.0039 14.1978 18.1927V29.0001H21.4062V18.1927C21.4062 17.0039 20.4444 16.0312 19.2448 16.0312Z" stroke="black" stroke-opacity="0.2" stroke-width="1.3" stroke-miterlimit="10" stroke-linecap="round" stroke-linejoin="round"></path>
<path d="M26.4533 23.5957H21.4062V28.9994H28.6148V25.7572C28.6148 24.5684 27.6421 23.5957 26.4533 23.5957Z" stroke="#FFC20C" stroke-width="1.3" stroke-miterlimit="10" stroke-linecap="round" stroke-linejoin="round"></path>
<path d="M26.4533 23.5957H21.4062V28.9994H28.6148V25.7572C28.6148 24.5684 27.6421 23.5957 26.4533 23.5957Z" stroke="black" stroke-opacity="0.2" stroke-width="1.3" stroke-miterlimit="10" stroke-linecap="round" stroke-linejoin="round"></path>
<path d="M18.3694 7.46068L18.9422 8.60625C19.0178 8.76836 19.2232 8.91967 19.3961 8.94128L20.4336 9.11421C21.0928 9.22228 21.2549 9.70859 20.7794 10.1733L19.9689 10.9839C19.8284 11.1244 19.7527 11.3837 19.796 11.5675L20.0229 12.5618C20.2066 13.3507 19.7851 13.6533 19.0935 13.2426L18.1208 12.6698C17.9479 12.5618 17.6561 12.5618 17.4832 12.6698L16.5105 13.2426C15.8188 13.6533 15.3973 13.3507 15.5811 12.5618L15.808 11.5675C15.8513 11.3837 15.7756 11.1136 15.6351 10.9839L14.8354 10.1841C14.3598 9.70861 14.5111 9.23307 15.1812 9.125L16.2187 8.9521C16.3916 8.91968 16.597 8.76838 16.6726 8.61707L17.2454 7.47147C17.5588 6.84464 18.056 6.84466 18.3694 7.46068Z" stroke="#FFC20C" stroke-width="1.3" stroke-linecap="round" stroke-linejoin="round"></path>
<path d="M18.3694 7.46068L18.9422 8.60625C19.0178 8.76836 19.2232 8.91967 19.3961 8.94128L20.4336 9.11421C21.0928 9.22228 21.2549 9.70859 20.7794 10.1733L19.9689 10.9839C19.8284 11.1244 19.7527 11.3837 19.796 11.5675L20.0229 12.5618C20.2066 13.3507 19.7851 13.6533 19.0935 13.2426L18.1208 12.6698C17.9479 12.5618 17.6561 12.5618 17.4832 12.6698L16.5105 13.2426C15.8188 13.6533 15.3973 13.3507 15.5811 12.5618L15.808 11.5675C15.8513 11.3837 15.7756 11.1136 15.6351 10.9839L14.8354 10.1841C14.3598 9.70861 14.5111 9.23307 15.1812 9.125L16.2187 8.9521C16.3916 8.91968 16.597 8.76838 16.6726 8.61707L17.2454 7.47147C17.5588 6.84464 18.056 6.84466 18.3694 7.46068Z" stroke="black" stroke-opacity="0.2" stroke-width="1.3" stroke-linecap="round" stroke-linejoin="round"></path>
</g>
<defs>
<filter id="filter0_d_227_16553" x="-2" y="-2" width="40" height="40" filterUnits="userSpaceOnUse" color-interpolation-filters="sRGB">
<feFlood flood-opacity="0" result="BackgroundImageFix"></feFlood>
<feColorMatrix in="SourceAlpha" type="matrix" values="0 0 0 0 0 0 0 0 0 0 0 0 0 0 0 0 0 0 127 0" result="hardAlpha"></feColorMatrix>
<feMorphology radius="2" operator="dilate" in="SourceAlpha" result="effect1_dropShadow_227_16553"></feMorphology>
<feOffset></feOffset>
<feComposite in2="hardAlpha" operator="out"></feComposite>
<feColorMatrix type="matrix" values="0 0 0 0 1 0 0 0 0 1 0 0 0 0 1 0 0 0 0.01 0"></feColorMatrix>
<feBlend mode="normal" in2="BackgroundImageFix" result="effect1_dropShadow_227_16553"></feBlend>
<feBlend mode="normal" in="SourceGraphic" in2="effect1_dropShadow_227_16553" result="shape"></feBlend>
</filter>
</defs>
</svg>
