<svg width="20" height="20" viewBox="0 0 20 20" fill="none" xmlns="http://www.w3.org/2000/svg">
<path d="M15.0887 14.3086L19.0798 18.2988L17.7612 19.6174L13.771 15.6262C12.2863 16.8164 10.4396 17.4638 8.5367 17.4611C3.90719 17.4611 0.149902 13.7038 0.149902 9.0743C0.149902 4.44479 3.90719 0.6875 8.5367 0.6875C13.1662 0.6875 16.9235 4.44479 16.9235 9.0743C16.9262 10.9772 16.2789 12.8239 15.0887 14.3086ZM13.2193 13.6171C14.402 12.401 15.0624 10.7707 15.0598 9.0743C15.0598 5.46984 12.1402 2.55123 8.5367 2.55123C4.93224 2.55123 2.01364 5.46984 2.01364 9.0743C2.01364 12.6778 4.93224 15.5974 8.5367 15.5974C10.2331 15.6 11.8634 14.9396 13.0795 13.7569L13.2193 13.6171V13.6171Z" fill="#013957"></path>
<path d="M15.0887 14.3086L19.0798 18.2988L17.7612 19.6174L13.771 15.6262C12.2863 16.8164 10.4396 17.4638 8.5367 17.4611C3.90719 17.4611 0.149902 13.7038 0.149902 9.0743C0.149902 4.44479 3.90719 0.6875 8.5367 0.6875C13.1662 0.6875 16.9235 4.44479 16.9235 9.0743C16.9262 10.9772 16.2789 12.8239 15.0887 14.3086ZM13.2193 13.6171C14.402 12.401 15.0624 10.7707 15.0598 9.0743C15.0598 5.46984 12.1402 2.55123 8.5367 2.55123C4.93224 2.55123 2.01364 5.46984 2.01364 9.0743C2.01364 12.6778 4.93224 15.5974 8.5367 15.5974C10.2331 15.6 11.8634 14.9396 13.0795 13.7569L13.2193 13.6171V13.6171Z" fill="black" fill-opacity="0.2"></path>
</svg>
